<svg xmlns="http://www.w3.org/2000/svg" width="1026.267" height="1196.838" viewBox="0 0 271.533 316.663"><path d="M249.918 0c11.24.346 20.723 9 20.723 20.079v165.824c0 11.425-10.186 20.08-20.723 20.426H21.615c-11.24 0-20.723-9.001-20.723-20.08V20.426c0-3.808 1.054-7.616 3.161-11.078.352-.692.703-1.038 1.405-1.73l.352-.347c.35-.346.702-1.039 1.404-1.385C11.078 2.077 16.698 0 21.966 0zm-1.756 14.886H23.372l112.395 112.858zm1.756 176.557c2.81.346 5.62-2.424 5.62-5.54V28.387L141.035 143.322c-1.405 1.385-3.161 2.077-5.268 2.077-2.108 0-3.864-.692-5.269-2.077L15.995 28.734v157.17c0 3.115 2.459 5.539 5.62 5.539zM30.903 248.207c-6.209-2.752-9.913-3.81-13.582-3.81-3.845 0-6.314 1.376-6.314 3.528 0 6.456 21.837 4.621 21.837 19.544 0 8.22-6.88 12.982-16.475 12.982-7.514 0-11.218-1.94-15.487-4.128v-9.207c6.138 4.057 9.913 5.503 14.64 5.503 4.128 0 6.315-1.446 6.315-3.95 0-7.021-21.837-4.446-21.837-19.792 0-7.408 6.385-12.312 16.334-12.312 4.797 0 9.137 1.023 14.534 3.316v8.326M61.49 278.44c-3.634 1.305-6.739 1.94-9.808 1.94-10.195 0-16.757-5.926-16.757-14.957 0-8.855 6.844-15.1 16.369-15.1 2.963 0 6.703.741 9.737 1.87v6.774c-2.4-1.27-5.151-1.976-7.409-1.976-5.468 0-8.96 3.281-8.96 8.361 0 5.15 3.457 8.537 8.643 8.537 2.187 0 4.163-.494 8.184-2.01v6.561M146.509 250.359c-8.926 0-15.276 6.315-15.276 15.17 0 8.925 6.597 14.851 16.793 14.851 2.257 0 7.725 0 12.911-3.845v-5.644c-4.268 3.033-7.09 4.092-10.724 4.092-5.75 0-9.243-2.964-9.56-8.044h20.778c.459-10.583-6.491-16.58-14.922-16.58m-5.68 11.783c.388-4.022 2.716-6.35 6.28-6.35 3.527 0 5.89 2.399 6.279 6.35zM164.959 250.888h9.102v28.998h-9.102zM199.355 237.06v15.098c-2.47-1.2-4.904-1.834-7.55-1.834-8.29 0-14.04 6.138-14.04 14.993 0 8.678 5.75 15.063 13.511 15.063 3.07 0 5.468-.811 8.079-2.892v2.328h9.101v-42.757h-9.101m0 34.89c-1.905 1.693-3.458 2.399-5.398 2.399-4.268 0-6.985-3.528-6.985-8.82 0-5.785 2.717-9.137 7.303-9.137 1.658 0 3.774.741 5.115 1.694v13.864zM227.542 250.359c-8.926 0-15.276 6.315-15.276 15.17 0 8.925 6.597 14.851 16.793 14.851 2.257 0 7.725 0 12.947-3.845v-5.644c-4.27 3.033-7.091 4.092-10.725 4.092-5.715 0-9.243-2.964-9.56-8.044h20.778c.424-10.583-6.526-16.58-14.957-16.58m-5.645 11.783c.388-4.022 2.717-6.35 6.28-6.35 3.527 0 5.926 2.399 6.314 6.35zM256.117 259.178h.14c2.682-6.032 5.716-8.854 9.244-8.854 1.799 0 3.386.705 6.032 2.645l-2.505 8.044c-2.399-1.517-3.95-2.117-5.397-2.117-3.352 0-5.468 3.14-7.48 8.467v12.488h-9.136v-28.963h9.102v8.29M174.484 238.682c.847 2.258-.67 5.397-3.422 7.02-2.752 1.623-5.645 1.094-6.491-1.164-.847-2.258.67-5.397 3.422-7.02 2.716-1.588 5.609-1.094 6.49 1.164M94.227 261.436c0-7.867-5.327-11.077-10.619-11.077-3.563 0-6.526 1.517-9.172 4.833h-.141v-18.133h-9.102v42.722h9.102V261.4c2.117-3.07 3.951-4.41 6.068-4.41 2.822 0 4.727 2.011 4.727 6.35v10.195c3.034-1.552 6.138-2.54 9.102-2.892v-9.208M117.087 250.359c-3.704 0-6.526 1.376-9.42 4.692v-4.163h-9.1v19.685c3.139.318 7.16 1.764 9.1 4.163v-13.547c2.4-3.598 4.093-4.798 6.35-4.798 2.576 0 4.552 1.694 4.552 5.786v17.604h9.101v-18.345c-.035-8.537-6.067-11.077-10.583-11.077M122.061 298.866v7.726h10.9v3.245h-14.428v-24.941h14.111v3.21h-10.583v7.514h10.195v3.246zM141.288 284.896h3.245v24.941h-3.245zM156.069 302.111h11.536c0-6.067-2.787-9.03-7.126-9.03-4.516 0-7.656 3.35-7.656 8.325 0 4.55 2.823 8.749 7.938 8.749 2.787 0 4.586-.635 6.561-1.94v-3.14c-1.94 1.27-3.774 1.975-5.75 1.975-3.14 0-5.01-1.693-5.503-4.939m4.48-6.244c2.293 0 3.704 1.588 3.81 4.057h-8.255c.459-2.575 1.976-4.057 4.445-4.057M188.771 297.702c-1.87-1.27-3.104-1.658-4.515-1.658-2.964 0-5.01 2.257-5.01 5.609 0 3.386 2.188 5.433 5.574 5.433 1.376 0 2.717-.353 4.34-1.094v3.175c-1.094.53-3.176.952-4.904.952-4.904 0-8.326-3.386-8.326-8.184 0-5.433 3.105-8.89 8.079-8.89 1.905 0 3.175.459 4.762 1.129v3.528M203.517 293.398h5.186v2.928h-5.186v8.431c0 1.94 1.412 2.505 2.329 2.505 1.164 0 2.363-.423 3.704-1.235v3.034c-1.129.635-2.893 1.094-3.951 1.094-3.528 0-5.292-2.187-5.292-5.15v-8.68h-2.857v-.352l6.103-5.962-.036 3.387M221.086 293.398v3.81h.07c1.658-2.928 3.21-4.128 4.763-4.128 1.305 0 2.54.635 3.916 1.905l-1.729 2.858c-.988-.988-2.258-1.658-3.034-1.658-2.222 0-3.986 2.258-3.986 5.08v8.572h-3.246v-16.44h3.246M262.996 297.702c-1.87-1.27-3.105-1.658-4.551-1.658-2.963 0-5.01 2.257-5.01 5.609 0 3.386 2.188 5.433 5.54 5.433 1.375 0 2.716-.353 4.374-1.094v3.175c-1.13.53-3.21.952-4.904.952-4.904 0-8.326-3.386-8.326-8.184 0-5.433 3.105-8.89 8.114-8.89 1.905 0 3.175.459 4.763 1.129v3.528M238.407 293.398h3.246v16.44h-3.246zM241.759 287.471c.317.812-.247 1.905-1.2 2.505-.988.564-2.01.388-2.328-.423-.282-.812.247-1.905 1.235-2.505.952-.53 1.975-.353 2.293.423M98.778 295.514l.988-3.563h8.96c1.094-5.15.247-9.948-2.893-13.088-6.35-6.35-19.614-4.198-29.527 5.292-1.552 1.482-2.858 3.07-4.057 4.692h5.397l-1.27 3.563h-6.42c-.6 1.129-1.2 2.258-1.623 3.387h7.62l-1.235 3.563h-7.514c-1.27 5.468-.458 10.548 2.752 13.758 6.28 6.28 19.508 4.057 29.386-5.397 1.729-1.658 3.175-3.422 4.445-5.257h-6.914l1.058-3.563h8.079a28.875 28.875 0 001.552-3.387h-8.784m-1.976-6.702c-.564 0-.811.106-1.058.352-.106.106-.141.212-.176.424l-2.893 11.006c-.67 3.846-5.433 7.726-11.607 7.726h-8.607l1.481-5.644h5.539c.564 0 .988-.212 1.376-.635.14-.177.317-.423.317-.67l2.293-9.631c.67-3.88 4.763-8.15 10.936-8.15h8.82l-1.13 5.222z"/></svg>