<svg xmlns="http://www.w3.org/2000/svg" width="512" height="512"><path fill="#3dcd58" d="M0 0h512v344H0z"/><path fill="#009530" d="M0 344h512v168H0z"/><g fill="#fff"><path d="M151.137 399.593c-6.21-2.752-9.913-3.81-13.582-3.81-3.845 0-6.315 1.376-6.315 3.527 0 6.456 21.837 4.622 21.837 19.544 0 8.22-6.88 12.983-16.475 12.983-7.514 0-11.218-1.94-15.487-4.128v-9.207c6.139 4.057 9.913 5.503 14.64 5.503 4.128 0 6.315-1.446 6.315-3.951 0-7.02-21.837-4.445-21.837-19.791 0-7.408 6.386-12.312 16.334-12.312 4.798 0 9.137 1.023 14.535 3.316v8.326M181.723 429.826c-3.634 1.305-6.738 1.94-9.808 1.94-10.195 0-16.757-5.927-16.757-14.958 0-8.854 6.844-15.099 16.37-15.099 2.963 0 6.702.741 9.736 1.87v6.773c-2.399-1.27-5.15-1.975-7.408-1.975-5.468 0-8.96 3.28-8.96 8.36 0 5.151 3.456 8.538 8.642 8.538 2.187 0 4.163-.494 8.185-2.01v6.56M266.742 401.745c-8.925 0-15.275 6.314-15.275 15.17 0 8.924 6.597 14.851 16.792 14.851 2.258 0 7.726 0 12.912-3.845v-5.645c-4.269 3.034-7.091 4.093-10.725 4.093-5.75 0-9.243-2.964-9.56-8.044h20.779c.458-10.583-6.492-16.58-14.923-16.58m-5.68 11.782c.388-4.021 2.717-6.35 6.28-6.35 3.528 0 5.891 2.4 6.28 6.35zM285.192 402.274h9.102v28.998h-9.102zM319.588 388.445v15.099c-2.47-1.2-4.903-1.835-7.55-1.835-8.29 0-14.04 6.139-14.04 14.993 0 8.679 5.75 15.064 13.512 15.064 3.069 0 5.468-.811 8.078-2.893v2.329h9.102v-42.757h-9.102m0 34.89c-1.905 1.693-3.457 2.399-5.397 2.399-4.269 0-6.985-3.528-6.985-8.82 0-5.785 2.716-9.137 7.302-9.137 1.658 0 3.775.741 5.115 1.693v13.865zM347.775 401.745c-8.925 0-15.275 6.314-15.275 15.17 0 8.924 6.597 14.851 16.792 14.851 2.258 0 7.726 0 12.947-3.845v-5.645c-4.269 3.034-7.09 4.093-10.724 4.093-5.715 0-9.243-2.964-9.56-8.044h20.778c.423-10.583-6.526-16.58-14.958-16.58m-5.644 11.782c.388-4.021 2.716-6.35 6.28-6.35 3.527 0 5.926 2.4 6.314 6.35zM376.35 410.564h.141c2.681-6.032 5.715-8.855 9.243-8.855 1.8 0 3.387.706 6.033 2.646l-2.505 8.044c-2.4-1.517-3.951-2.117-5.398-2.117-3.351 0-5.468 3.14-7.479 8.467v12.488h-9.137v-28.963h9.102v8.29M294.717 390.068c.847 2.257-.67 5.397-3.422 7.02-2.751 1.623-5.644 1.094-6.49-1.164-.847-2.258.67-5.398 3.421-7.02 2.717-1.588 5.61-1.094 6.491 1.164M214.46 412.822c0-7.867-5.327-11.077-10.618-11.077-3.563 0-6.527 1.517-9.172 4.833h-.142v-18.133h-9.101v42.721h9.101v-18.38c2.117-3.069 3.952-4.41 6.068-4.41 2.822 0 4.727 2.012 4.727 6.35v10.196c3.034-1.552 6.139-2.54 9.102-2.893v-9.207M237.32 401.745c-3.704 0-6.526 1.375-9.419 4.692v-4.163H218.8v19.685c3.14.317 7.161 1.764 9.101 4.163v-13.547c2.4-3.598 4.092-4.798 6.35-4.798 2.576 0 4.551 1.693 4.551 5.786v17.603h9.102v-18.344c-.036-8.537-6.068-11.077-10.584-11.077M253.195 461.223h-14.428v-24.941h14.11v3.21h-10.582v7.514h10.195v3.246h-10.195v7.725h10.9zM261.521 436.282h3.246v24.941h-3.246zM276.302 453.497h11.536c0-6.068-2.787-9.031-7.126-9.031-4.515 0-7.655 3.351-7.655 8.326 0 4.55 2.822 8.748 7.937 8.748 2.787 0 4.586-.635 6.562-1.94v-3.14c-1.94 1.27-3.775 1.976-5.75 1.976-3.14 0-5.01-1.693-5.504-4.939m4.48-6.244c2.294 0 3.705 1.587 3.81 4.057h-8.254c.458-2.575 1.975-4.057 4.445-4.057M309.005 449.087c-1.87-1.27-3.105-1.658-4.516-1.658-2.963 0-5.01 2.258-5.01 5.61 0 3.386 2.188 5.432 5.575 5.432 1.376 0 2.716-.352 4.339-1.093v3.175c-1.094.529-3.175.952-4.904.952-4.903 0-8.325-3.386-8.325-8.184 0-5.433 3.104-8.89 8.078-8.89 1.905 0 3.175.458 4.763 1.129v3.527M323.751 444.784h5.186v2.928h-5.186v8.431c0 1.94 1.411 2.505 2.328 2.505 1.164 0 2.364-.424 3.704-1.235v3.034c-1.128.635-2.892 1.093-3.95 1.093-3.528 0-5.292-2.187-5.292-5.15v-8.678h-2.858v-.353l6.103-5.962-.035 3.387M341.32 444.784v3.81h.07c1.658-2.929 3.21-4.128 4.762-4.128 1.306 0 2.54.635 3.916 1.905l-1.728 2.858c-.988-.988-2.258-1.659-3.034-1.659-2.223 0-3.987 2.258-3.987 5.08v8.573h-3.245v-16.44h3.245M383.23 449.087c-1.87-1.27-3.105-1.658-4.552-1.658-2.963 0-5.009 2.258-5.009 5.61 0 3.386 2.187 5.432 5.539 5.432 1.375 0 2.716-.352 4.374-1.093v3.175c-1.129.529-3.21.952-4.904.952-4.903 0-8.325-3.386-8.325-8.184 0-5.433 3.104-8.89 8.114-8.89 1.905 0 3.175.458 4.762 1.129v3.527M358.64 444.784h3.246v16.439h-3.245zM361.992 438.857c.318.811-.247 1.905-1.2 2.505-.987.564-2.01.388-2.328-.424-.282-.811.247-1.905 1.235-2.504.953-.53 1.976-.353 2.293.423M219.011 446.9l.988-3.563h8.96c1.094-5.15.248-9.948-2.892-13.088-6.35-6.35-19.615-4.198-29.528 5.292-1.552 1.481-2.857 3.069-4.057 4.692h5.398l-1.27 3.563h-6.42c-.6 1.129-1.2 2.258-1.623 3.386h7.62l-1.235 3.563h-7.514c-1.27 5.469-.459 10.549 2.751 13.759 6.28 6.28 19.509 4.057 29.387-5.398 1.728-1.658 3.175-3.422 4.445-5.256h-6.915l1.059-3.563h8.078a28.875 28.875 0 001.552-3.387h-8.784m-1.975-6.703c-.565 0-.812.106-1.059.353-.105.106-.14.212-.176.424l-2.893 11.006c-.67 3.845-5.433 7.726-11.606 7.726h-8.608l1.482-5.644h5.538c.565 0 .988-.212 1.376-.635.141-.177.318-.424.318-.67l2.293-9.632c.67-3.88 4.762-8.149 10.936-8.149h8.82l-1.13 5.221z"/></g><path d="M370.151 68.836c11.24.346 20.723 9 20.723 20.079v165.824c0 11.424-10.186 20.08-20.723 20.425H141.85c-11.24 0-20.723-9-20.723-20.079V89.261c0-3.808 1.053-7.616 3.16-11.078.352-.693.703-1.039 1.406-1.731l.351-.346c.351-.347.702-1.039 1.405-1.385 3.864-3.808 9.483-5.885 14.752-5.885zm-1.756 14.886h-224.79L256 196.579zm1.756 176.556c2.81.346 5.62-2.423 5.62-5.539V97.223L261.27 212.158c-1.405 1.385-3.162 2.077-5.269 2.077s-3.864-.692-5.269-2.077L136.23 97.569v157.17c0 3.116 2.458 5.54 5.62 5.54z" fill="#fff"/></svg>